<svg height="681pt" viewBox="-31 -21 681 681.58225" width="681pt" xmlns="http://www.w3.org/2000/svg"><path d="m256.898438 578.09375h-18.726563v-18.722656h18.726563zm-31.210938 0h-18.730469v-18.722656h18.730469zm0 0"/><path d="m226.972656.0820312c-66.324218 83.9648438-227.414062 304.7539068-227.414062 411.5664068 0 125.398437 102.019531 227.417968 227.414062 227.417968 125.402344 0 227.417969-102.019531 227.417969-227.417968 0-106.8125-161.089844-327.605469-227.417969-411.5664068zm0 620.2578128c-115.070312 0-208.691406-93.617188-208.691406-208.691406 0-103.5 170.84375-331.859376 208.691406-381.175782 37.851563 49.3125 208.691406 277.652344 208.691406 381.175782 0 115.074218-93.621093 208.691406-208.691406 208.691406zm0 0"/><path d="m416.933594 411.648438c0-30.492188-18.074219-94.738282-104.199219-227.632813l-15.710937 10.183594c91.328124 140.925781 101.1875 199.019531 101.1875 217.449219zm0 0"/><path d="m580.25 276.328125c0-12.371094-6.527344-51.238281-66.988281-144.566406l-15.71875 10.1875c60.894531 93.992187 63.980469 128.429687 63.980469 134.378906zm0 0"/><path d="m472.0625 9.386719-7.347656-9.3046878c-43.480469 55.0507808-80.394532 109.8671878-104.242188 150.5781248l16.15625 9.464844c32.019532-54.65625 71.890625-108.371094 88.085938-129.613281 37.984375 49.785156 134.265625 183.910156 134.265625 245.816406 0 69.246094-51.882813 126.671875-120.679688 133.582031l1.875 18.636719c77.582031-7.796875 137.527344-73.285156 137.527344-152.21875 0-81.636719-139.691406-259.417969-145.640625-266.941406zm0 0"/></svg>